<?xml version="1.0" standalone="no"?><!DOCTYPE svg PUBLIC "-//W3C//DTD SVG 1.1//EN" "http://www.w3.org/Graphics/SVG/1.1/DTD/svg11.dtd"><svg t="1570517653224" class="icon" viewBox="0 0 1218 1024" version="1.1" xmlns="http://www.w3.org/2000/svg" p-id="4344" xmlns:xlink="http://www.w3.org/1999/xlink" width="356.8359375" height="300"><defs><style type="text/css"></style></defs><path d="M550.282908 224.487797h170.630169c-50.334385 0-57.730842-85.315084-109.205191-85.315084h-170.630169c51.474348 0.001023 58.870806 85.315084 109.205191 85.315084z" fill="#FFB855" p-id="4345"></path><path d="M1003.304655 884.826264h-788.311093c-22.522969 0-40.951691-18.427698-40.95169-40.951691v-663.750169c0-22.522969 18.427698-40.951691 40.95169-40.951691h226.084155c51.474348 0 58.870806 85.315084 109.205191 85.315084h453.021747c22.522969 0 40.951691 18.427698 40.951691 40.950668v578.436108c0 22.523993-18.427698 40.951691-40.951691 40.951691z" fill="#FFDC69" p-id="4346"></path><path d="M550.282908 224.487797h85.315085c-50.334385 0-57.730842-85.315084-109.205191-85.315084h-85.315085c51.474348 0.001023 58.870806 85.315084 109.205191 85.315084z" fill="#FFC85A" p-id="4347"></path><path d="M644.554992 327.545988m-38.249139 0a38.249139 38.249139 0 1 0 76.498278 0 38.249139 38.249139 0 1 0-76.498278 0Z" fill="#FFC85A" p-id="4348"></path><path d="M978.283796 365.937366h-252.541737c-5.628184 0-10.233062-4.604878-10.233062-10.233062v-56.317656c0-5.628184 4.604878-10.233062 10.233062-10.233062h252.541737c5.628184 0 10.233062 4.604878 10.233062 10.233062v56.317656c0 5.628184-4.604878 10.233062-10.233062 10.233062z" fill="#FFF0B9" p-id="4349"></path></svg>