<?xml version="1.0" standalone="no"?><!DOCTYPE svg PUBLIC "-//W3C//DTD SVG 1.1//EN" "http://www.w3.org/Graphics/SVG/1.1/DTD/svg11.dtd"><svg t="1570694773632" class="icon" viewBox="0 0 1024 1024" version="1.1" xmlns="http://www.w3.org/2000/svg" p-id="1161" xmlns:xlink="http://www.w3.org/1999/xlink" width="300" height="300"><defs><style type="text/css"></style></defs><path d="M 858.114 229.81 c -0.004093 -0.064468 -0.011257 -0.127913 -0.01535 -0.192382 c -0.036841 -0.615007 -0.097218 -1.22387 -0.171922 -1.82763 c -0.011257 -0.086981 -0.02149 -0.173962 -0.032747 -0.260943 c -0.376592 -2.82637 -1.15536 -5.52176 -2.28104 -8.02988 c -0.005117 -0.011256 -0.010233 -0.022513 -0.01535 -0.033769 c -0.557725 -1.24025 -1.19936 -2.43547 -1.91775 -3.57646 c -0.078798 -0.124843 -0.157596 -0.248663 -0.23844 -0.37146 c -0.314168 -0.481977 -0.637546 -0.956791 -0.979344 -1.41728 c -0.125872 -0.170892 -0.257884 -0.337691 -0.387849 -0.505513 c -0.25686 -0.332575 -0.520884 -0.660032 -0.791048 -0.980327 c -0.195459 -0.233314 -0.393989 -0.463558 -0.597635 -0.690732 c -0.191366 -0.212848 -0.388872 -0.417509 -0.585355 -0.623193 c -0.212856 -0.225127 -0.413433 -0.457418 -0.634476 -0.676405 L 689.676 53.6571 c -4.52525 -4.58543 -10.561 -7.66968 -17.3017 -8.4566 c -0.01842 -0.002047 -0.035817 -0.004093 -0.054237 -0.00614 c -0.655966 -0.075725 -1.31603 -0.13303 -1.98325 -0.163729 c -0.148385 -0.007163 -0.296771 -0.00614 -0.445156 -0.011256 c -0.309051 -0.00921 -0.618102 -0.023536 -0.9292 -0.023536 L 188.713 44.9958 c -16.0799 0 -29.1091 13.0287 -29.1091 29.1233 l 0 873.794 c 0 16.0935 13.0293 29.1223 29.1091 29.1223 l 640.34 0 c 16.0799 0 29.1081 -13.0287 29.1081 -29.1223 L 858.16 231.421 C 858.16 230.88 858.143 230.343 858.114 229.81 Z M 698.073 143.553 l 59.786 58.7306 l -59.786 0 L 698.073 143.553 Z M 799.941 918.775 L 217.807 918.775 L 217.807 103.241 l 422.046 0 l 0 128.179 c 0 16.0935 13.0589 29.1223 29.1091 29.1223 l 130.978 0 L 799.941 918.775 Z M 717.887 515.961 L 314.516 515.961 c -16.0799 0 -29.1091 13.0287 -29.1091 29.1233 c 0 16.1079 13.0293 29.1366 29.1091 29.1366 l 403.37 0 c 16.0533 0 29.1112 -13.0277 29.1112 -29.1366 C 746.998 528.99 733.939 515.961 717.887 515.961 Z M 285.407 422.749 c 0 16.1079 13.0293 29.1366 29.1091 29.1366 l 403.37 0 c 16.0533 0 29.1112 -13.0287 29.1112 -29.1366 c 0 -16.0946 -13.0589 -29.1233 -29.1112 -29.1233 L 314.516 393.626 C 298.436 393.626 285.407 406.656 285.407 422.749 Z M 717.887 638.269 L 314.516 638.269 c -16.0799 0 -29.1091 13.0277 -29.1091 29.1212 c 0 16.1079 13.0293 29.1366 29.1091 29.1366 l 403.37 0 c 16.0533 0 29.1112 -13.0277 29.1112 -29.1366 C 746.998 651.298 733.939 638.269 717.887 638.269 Z M 717.887 760.603 L 314.516 760.603 c -16.0799 0 -29.1091 13.0287 -29.1091 29.1233 c 0 16.1068 13.0293 29.1366 29.1091 29.1366 l 403.37 0 c 16.0533 0 29.1112 -13.0287 29.1112 -29.1366 C 746.998 773.633 733.939 760.603 717.887 760.603 Z" fill="#07c160" p-id="1162"></path></svg>